<svg id="Layer_1" enable-background="new 0 0 512.001 512.001" height="512" viewBox="0 0 512.001 512.001" width="512" xmlns="http://www.w3.org/2000/svg"><path d="m482 392.001h-196c-11.517 0-22.032 4.354-30 11.495-7.968-7.141-18.483-11.495-30-11.495h-196v60h-30v30h181v30h150v-30h181v-30h-30zm-181 60v30h-90v-30h-151v-30h166c8.271 0 15 6.729 15 15v15h30v-15c0-8.271 6.729-15 15-15h166v30z"/><path d="m316 362.001v-97.208c0-5.299 2.528-10.027 6.598-12.339 49.285-27.999 75.479-82.543 66.733-138.959-9.105-58.723-58.181-105.576-116.936-112.523-81.764-9.667-151.395 54.056-151.395 134.029 0 48.548 26.266 93.585 68.547 117.536 3.92 2.221 6.453 7.038 6.453 12.273v97.191zm-90-30v-62h60v62zm-75-197c0-61.051 52.878-111.916 117.871-104.237 45.611 5.393 83.804 42.12 90.813 87.328 6.82 43.989-13.554 86.491-51.906 108.278-5.885 3.344-10.793 8.049-14.451 13.631h-22.327v-36.972l45-30v-53.028h-30v36.972l-30 20-30-20v-36.972h-30v53.028l45 30v36.972h-22.295c-3.639-5.569-8.519-10.252-14.371-13.567-32.897-18.635-53.334-53.67-53.334-91.433z"/><path d="m72.126 202.501h30v59.999h-30z" transform="matrix(-.5 -.866 .866 -.5 -70.663 424.205)"/><path d="m409.876 7.501h30v59.999h-30z" transform="matrix(-.5 -.866 .866 -.5 604.838 424.203)"/><path d="m72.126 7.501h30v59.999h-30z" transform="matrix(.5 -.866 .866 .5 11.086 94.203)"/><path d="m409.876 202.501h30v59.999h-30z" transform="matrix(-.5 .866 -.866 -.5 838.666 -19.2)"/><path d="m31 120.001h60v30h-60z"/><path d="m421 120.001h60v30h-60z"/></svg>